# xmcd
#
# Track frame offsets: 
#        150
#        19608
#        38333
#        63755
#        81553
#        106553
#        128818
#        143083
#        164775
#        185700
#
# Disc length: 2865 seconds
#
# Revision: 2
# Processed by: cddbd v1.5.2PL0 Copyright (c) Steve Scherf et al.
# Submitted via: ExactAudioCopyFreeDBPlugin 1.0
#
DISCID=7d0b2f0a
DTITLE=Aerosmith - Pump
DYEAR=1989
DGENRE=Rock
TTITLE0=Young Lust
TTITLE1=F.I.N.E.
TTITLE2=Going Down - Love in an Elevator
TTITLE3=Monkey on My Back
TTITLE4=Water Song - Janie’s Got a Gun
TTITLE5=Dulcimer Stomp - The Other Side
TTITLE6=My Girl
TTITLE7=Don’t Get Mad, Get Even
TTITLE8=Hoodoo - Voodoo Medicine Man
TTITLE9=What It Takes
EXTD=
EXTT0=
EXTT1=
EXTT2=
EXTT3=
EXTT4=
EXTT5=
EXTT6=
EXTT7=
EXTT8=
EXTT9=
PLAYORDER=
